<svg xmlns="http://www.w3.org/2000/svg" data-name="Layer 1" viewBox="0 0 512 640" x="0px" y="0px"><path d="M244.668,116.654a148.951,148.951,0,0,1,11.259,17.956c10.649-3.481,39.934-10.163,83.911,1.838q-3.974-11.1-9-22.2C294.654,99.593,258.239,111.2,244.668,116.654Z"/><path d="M265.135,61.83c2.159.169,4.317.364,6.474.616,5.363.628,10.719,1.54,16.064,2.686,3.267-16.792,15.105-26.945,25.9-32.248a154.711,154.711,0,0,0-30.9-8.831A63.329,63.329,0,0,0,272.32,35.537C266.192,44.381,263.787,53.21,265.135,61.83Z"/><path d="M270.446,72.378A160.946,160.946,0,0,0,203.878,78.7a147.131,147.131,0,0,1,31.751,26.794c.859.959,1.726,1.964,2.595,2.99,11.447-5.018,47.647-18.4,86.493-6.953q-3.109-6.119-6.523-12.231l-1.827-4.723h-.1v-.043A171.647,171.647,0,0,0,270.446,72.378Z"/><path d="M173.756,91.058A122.541,122.541,0,0,1,212.8,111.484c41.134,32.343,46.8,81.86,44.141,118.25l.118.23,2.884-8.226a4.95,4.95,0,0,1,.443-.94,11.244,11.244,0,0,1,4.26-4.033c.7-41.6-11.56-76.779-36.471-104.6a131.515,131.515,0,0,0-36.849-29.076A188.271,188.271,0,0,0,173.756,91.058Z"/><path d="M244.462,61.49q5.269-.237,10.543-.143c-1.09-10.585,2.05-21.444,9.277-31.767a70.887,70.887,0,0,1,5.938-7.352A196.962,196.962,0,0,0,248.266,21q-6.633,0-13.1.431C242.2,30.668,248.394,44.953,244.462,61.49Z"/><path d="M142.47,127.059h72.907a104.821,104.821,0,0,0-8.755-7.714,111.609,111.609,0,0,0-45.444-21.192,180.94,180.94,0,0,0-28.226,21.12A9.732,9.732,0,0,0,142.47,127.059Z"/><path d="M148.236,60.708l22.181.4a15.788,15.788,0,0,1,15.241,13.47c2.881-1.167,5.841-2.294,8.9-3.358,2.758-.961,5.525-1.839,8.3-2.661-1.007-21.35-17.558-31.551-23.09-34.369-14.519,6.436-25.88,14.939-32.357,24.862a1.041,1.041,0,0,0-.058,1.109A.967.967,0,0,0,148.236,60.708Z"/><path d="M212.7,65.937A173.362,173.362,0,0,1,233.839,62.3c6.674-20.126-6.444-35.193-11.02-39.666a168.207,168.207,0,0,0-31.494,7.1C199.787,35.9,211.048,47.44,212.7,65.937Z"/><path d="M297.4,67.506A189.251,189.251,0,0,1,316.5,73.863a15.7,15.7,0,0,1,14.645-13.092l16.645-.882a.968.968,0,0,0,.87-.57,1.046,1.046,0,0,0-.087-1.1c-5.043-7.336-12.815-13.871-22.552-19.347C320.175,40.445,301.047,47.13,297.4,67.506Z"/><path d="M457.047,167.806l-46.448.161.561,20.241h43.578c4.627,0,8.392-4.58,8.392-10.208C463.13,176.311,462.827,167.954,457.047,167.806Z"/><path d="M411.438,198.208l.557,20.1h42.743c4.627,0,8.392-4.579,8.392-10.207,0-5.548-3.686-9.893-8.392-9.893Z"/><path d="M437.062,124.356l.076-.078a10.942,10.942,0,1,0-15.862-15.066L401.54,131.165h29.008Z"/><path d="M410.322,157.967h44.416a8.4,8.4,0,0,0,0-16.8H409.856Z"/><path d="M88.8,122.456H94.79a5,5,0,0,1,5,5v14.171a10.471,10.471,0,0,0,10.453,10.463H204.87a20.553,20.553,0,0,1,17.544,9.944c.058.1.114.2.165.3l24.933,48.9c-.453-30-8.224-54.827-23.229-74.175H142.47a19.741,19.741,0,0,1-19.713-19.724V112.37a9.729,9.729,0,0,0-9.713-9.724H88.8a9.73,9.73,0,0,0-9.713,9.724v.362A9.73,9.73,0,0,0,88.8,122.456Z"/><path d="M271.993,181.844q1.139,6.515,1.823,13.509a146.275,146.275,0,0,1,34.3,13.3c20.182,10.953,35.218,25.761,44.276,43.407a229.47,229.47,0,0,0,1.157-55.894C319.306,175.077,283.893,179.5,271.993,181.844Z"/><path d="M347.424,161.361q-1.678-6.691-3.745-13.387c-43.077-13.2-72.371-7.468-83.28-4.244a157.427,157.427,0,0,1,9.574,28.293c12.557-2.552,46.846-6.882,81.99,11.721q-1.7-10.989-4.439-21.991C347.489,161.622,347.449,161.5,347.424,161.361Z"/><path d="M291.693,261.439v16.587a19.434,19.434,0,0,1-8.77,16.236v21.3l18.861,54.68A290.223,290.223,0,0,0,327.4,329.5C325.7,295.742,303.729,272,291.693,261.439Z"/><path d="M348.108,274.272c.313-1.287.6-2.575.89-3.864-12.792-43.6-57.874-59.91-74.481-64.516q.188,4.749.147,9.7a19.725,19.725,0,0,1,17.029,19.51v13.425c8.123,5.977,35.354,28.317,43.5,64.391A246.539,246.539,0,0,0,348.108,274.272Z"/><path d="M124.971,491h34.4c-31.2-12.092-51.151-28.6-63.166-41.815C84.5,436.3,78.365,424.631,75.552,418.2a80,80,0,0,0-12.867,7.513,76.749,76.749,0,0,0,9.428,22.6C79.886,461.078,95.36,478.788,124.971,491Z"/><path d="M357.378,278.394c-12.649,50.36-37.978,84.754-47.586,97.791a9.978,9.978,0,0,1-17.461-2.684l-9.408-27.274V491h74.455Z"/><path d="M356.259,155.457h6.556a5,5,0,0,1,0,10h-4.121a242.185,242.185,0,0,1,4.235,83.251,20.738,20.738,0,0,1,4.449,12.871V402.126h28.74v-4.315a5,5,0,0,1,10,0v4.567A93.45,93.45,0,0,1,463.1,427.285c8.561-56.238-6.286-106.4-20.757-139.269-3.441-7.817-7.008-15.016-10.5-21.537h-7.421a5,5,0,0,1,0-10h1.822a272.539,272.539,0,0,0-17.1-25.951H375.571a5,5,0,0,1,0-10h26.482l-2.2-79.363h-9.53a12.6,12.6,0,0,1-11.731-8.122,51.1,51.1,0,0,0-18.107-23.586A232.673,232.673,0,0,0,330.6,91.174,301.2,301.2,0,0,1,356.259,155.457Z"/><path d="M117.577,218.884c-.021.054-.043.108-.066.161L93,275.489a4.4,4.4,0,0,0,4.5,5.936l13.365-1.166a13.744,13.744,0,0,1,11.893,5.012,14.248,14.248,0,0,1,2.886,11.374l-1.009,6.134,6.7-3.777a5.143,5.143,0,0,1,6.735,1.379,5,5,0,0,1-1.639,7.228l-6.988,3.938a17.335,17.335,0,0,1,4.229,16.126L131.1,338.059a21.082,21.082,0,0,0,7.916,19.016l1.1.863a20.954,20.954,0,0,0,21.323,2.686l48.283-21.171a61.19,61.19,0,0,0,26.666-22.547l17.043-25.547a13.759,13.759,0,0,1-2.364-7.728V272.857a5.145,5.145,0,0,1,4.509-5.192,5,5,0,0,1,5.491,4.977v11a3.843,3.843,0,0,0,3.832,3.831h7.356a9.431,9.431,0,0,0,9.432-9.431V235.092a9.733,9.733,0,0,0-9.7-9.7H270a1.249,1.249,0,0,0-.856.345l-6.428,18.337a5.192,5.192,0,0,1-6.583,3.245,4.977,4.977,0,0,1-2.661-2.4l-.009,0-39.7-77.873a10.505,10.505,0,0,0-8.886-4.952H131.394L120.048,187.5a13.1,13.1,0,0,0-1.135,5.593l.137,7.03v11A21.111,21.111,0,0,1,117.577,218.884Zm23.074-6.083L145,211.636a1,1,0,0,0,.478-.293c8.4-9.083,26.619-22.641,54.226-11.377a9.311,9.311,0,0,0,4.231.684l7.371-.6a5,5,0,0,1,.807,9.967l-7.371.6a19.36,19.36,0,0,1-8.815-1.393,50.967,50.967,0,0,0-6.383-2.135c.187.583.359,1.178.5,1.8a17,17,0,1,1-33.189,7.371c-.129-.582-.222-1.156-.3-1.726a45.519,45.519,0,0,0-3.732,3.6,10.991,10.991,0,0,1-5.231,3.162l-4.345,1.165a5,5,0,1,1-2.589-9.659Z"/><path d="M169.685,218.483a7,7,0,0,0,10.588-7.431c-.439-1.978-1.566-4.4-4.332-5.145a32.974,32.974,0,0,0-7.069,1.51c-1.489.912-3.162,2.616-2.262,6.674A6.958,6.958,0,0,0,169.685,218.483Z"/><path d="M454.458,432.953a77.541,77.541,0,0,1-9.535,24.349c-9.835,16.347-24.231,26.9-39.116,33.7h77.12A83.751,83.751,0,0,0,454.458,432.953Z"/><path d="M266.421,320.493h6.5V297.435c-.221.007-.438.033-.662.033H264.9a13.8,13.8,0,0,1-3.254-.4l-16.916,25.356a71.087,71.087,0,0,1-28,24.784v33.3h5.079a5,5,0,0,1,0,10h-6.042a27.566,27.566,0,0,1-18.136,18.962A52.023,52.023,0,0,0,209.851,420.3c18.874,12.271,43.915,13.92,63.072,12.813V330.493h-6.5a5,5,0,0,1,0-10Z"/><path d="M401.406,412.178c-.1.006-.189.03-.288.03-.162,0-.315-.033-.473-.048-.462-.008-.92-.034-1.384-.034H367.378v57.143c49.841-15.792,54.622-44.451,54.774-53.943A83.444,83.444,0,0,0,401.406,412.178Z"/><path d="M436.354,452.146a65.756,65.756,0,0,0,9.088-26.088,83.7,83.7,0,0,0-13.532-7.284,53.812,53.812,0,0,1-6.139,20.006c-12.1,22.8-37.7,34.776-58.393,40.947V491h4.007C402.192,485.658,424.053,472.591,436.354,452.146Z"/><path d="M272.923,489.672l-14.261-19.663-14.523,18.237c-.086.108-.175.212-.27.311a9.762,9.762,0,0,1-3.61,2.443h32.664Z"/><path d="M203.438,458.4a85.792,85.792,0,0,1-14.1-7.768L187.7,465.86Z"/><path d="M155.231,436.681l17-2.071a72.255,72.255,0,0,1-8.085-13.007Z"/><path d="M228.663,465.814l8.349,15.232c.011.019.021.038.031.058l10.548-13.245A150.366,150.366,0,0,1,228.663,465.814Z"/><path d="M272.923,443.124c-3.517.2-6.913.3-10.167.3-52.065,0-71.223-23.968-76.456-32.655H170.51A62.225,62.225,0,0,0,185.859,434.9c18.446,18.077,48.489,25.776,87.064,22.382Z"/><path d="M104.013,442.9c14.766,16.091,42.353,37.466,89.973,48.1h39.76a10.2,10.2,0,0,1-5.595-5.316L216,463.508,189.226,476.2c-.066.031-.132.061-.2.089a8.382,8.382,0,0,1-11.554-8.92l2.551-23.635L153.188,447a8.637,8.637,0,0,1-1.049.065,8.387,8.387,0,0,1-7.145-12.722l13.941-23.577H109.164a79.736,79.736,0,0,0-24.279,3.775A107.953,107.953,0,0,0,104.013,442.9Z"/><path d="M54.158,432.745A79.943,79.943,0,0,0,29.073,490.92V491h73.4C69.621,471.63,58.083,445.992,54.158,432.745Z"/><path d="M272.923,467.324c-1.2.1-2.427.189-3.659.271l3.659,5.045Z"/><text x="0" y="527" fill="#000000" font-size="5px" font-weight="bold" font-family="'Helvetica Neue', Helvetica, Arial-Unicode, Arial, Sans-serif">Created by Icongeek26</text><text x="0" y="532" fill="#000000" font-size="5px" font-weight="bold" font-family="'Helvetica Neue', Helvetica, Arial-Unicode, Arial, Sans-serif">from the Noun Project</text></svg>