<svg xmlns="http://www.w3.org/2000/svg" xmlns:xlink="http://www.w3.org/1999/xlink" version="1.1" x="0px" y="0px" viewBox="0 0 328.026 630" style="enable-background:new 0 0 328.026 504;" xml:space="preserve"><g><path d="M306.693,138.52c-5.85-20.4-12.96-40.68-21.15-60.29c-14.19-33.99-45.41-57.31-81.73-61.22   C195.693,6.83,180.893,0,164.013,0c-16.89,0-31.69,6.84-39.81,17.03c-36.37,4.03-67.59,27.35-81.73,61.22   c-8.18,19.6-15.29,39.88-21.14,60.27c-18.43,64.35-24.97,131.32-19.42,199.06c0.06,0.67,0.28,1.31,0.65,1.87   c6.43,9.75,14.59,17.95,24.26,24.38c8.65,5.75,18.17,9.85,28.31,12.19c0.3,0.07,0.6,0.1,0.9,0.1c0.91,0,1.81-0.31,2.53-0.9   c0.96-0.78,1.5-1.96,1.47-3.2c-0.19-7.66-0.28-15.33-0.28-23.02h66.81c-7.94,11.75-32.55,19.59-51.4,25.59   c-10.27,3.27-19.14,6.1-23.95,9.11c-17.12,10.73-26.17,27.12-26.17,47.4V500c0,2.21,1.79,4,4,4c2.2,0,4-1.79,4-4v-68.9   c0-15.49,5.82-27.92,17.32-37.03c20.25,14.33,60.05,36.31,113.65,36.31c23.55,0,69.27-4.79,113.64-36.32   c11.51,9.12,17.33,21.55,17.33,37.04V500c0,2.21,1.8,4,4,4c2.21,0,4-1.79,4-4v-68.9c0-20.28-9.05-36.67-26.17-47.4   c-4.81-3.01-13.68-5.84-23.95-9.11c-18.85-6-43.46-13.84-51.4-25.59h66.81c0,7.69-0.09,15.36-0.28,23.02   c-0.03,1.39,0.65,2.69,1.8,3.45c1.15,0.75,2.62,0.87,3.87,0.29c9.63-4.44,18.93-9.78,27.62-15.86   c8.42-5.89,16.38-12.56,23.67-19.82c0.67-0.67,1.08-1.56,1.16-2.5C331.663,269.84,325.123,202.87,306.693,138.52z M274.423,73.43   c-19.04-3.98-38.42-6.93-57.76-8.83c0.14-13.91-3.81-25.02-6.26-30.53c-0.1-2.86-0.65-5.64-1.62-8.29   C236.853,30.62,261.013,48.18,274.423,73.43z M191.153,63.37c6.88-3.75,12.36-8.89,15.68-14.87c1.99,8.32,3.03,19.54-0.4,31.93   c-3.34,12.11-9.69,20.97-15.28,26.86V63.37z M144.873,66.87c5.84,2.01,12.32,3.13,19.14,3.13s13.3-1.12,19.14-3.13V85.6   c-6.38-0.23-12.79-0.35-19.14-0.35c-6.35,0-12.76,0.12-19.14,0.35V66.87z M121.193,48.5c3.32,5.98,8.8,11.12,15.68,14.87v43.92   c-5.59-5.89-11.94-14.75-15.28-26.86C118.163,68.04,119.203,56.82,121.193,48.5z M119.223,25.81c-0.95,2.65-1.5,5.41-1.6,8.26   c-2.45,5.51-6.4,16.62-6.26,30.53c-19.34,1.9-38.72,4.85-57.75,8.83C66.993,48.29,91.133,30.75,119.223,25.81z M44.573,198.31   c-3.23,22.99-5.82,46.38-7.69,69.51c-1.67,20.59-2.81,42.23-3.41,64.35c-0.06,2.17-1.83,3.89-3.99,3.89c-0.04,0-0.08,0-0.11,0   c-2.21-0.06-3.95-1.9-3.89-4.11c0.6-22.25,1.75-44.05,3.43-64.77c1.88-23.29,4.48-46.84,7.73-69.99c0.31-2.18,2.33-3.71,4.52-3.4   C43.353,194.1,44.873,196.12,44.573,198.31z M30.113,137.03c2.86-9.71,6.01-19.39,9.43-28.97c25.96-6.26,52.57-10.57,79.19-12.85   c3.57,7.14,7.91,12.84,11.95,17.17h-1.19c-12.96,0-25.65,4.39-35.87,12.37C72.303,127.56,50.973,131.69,30.113,137.03z M79.033,341   h-19.23c0.22-22.4,1.3-44.84,3.22-67.14c3.42,11.94,7.56,20.63,12.38,25.97c1.14,1.26,2.35,2.46,3.63,3.63V341z M117.883,341   v-19.47c3.58,0.78,7.34,1.44,11.28,2V341H117.883z M201.233,360.43c-14.56,6.27-28.03,7.69-37.22,7.69   c-15.26,0-27.99-3.73-37.22-7.7c6.35-5.29,10.37-11.59,10.37-19.3v-16.61c8.24,0.83,17.18,1.24,26.85,1.24   c9.67,0,18.61-0.41,26.85-1.24v16.61C190.863,348.84,194.883,355.13,201.233,360.43z M208.833,365.72   c5.89,3.49,12.76,6.49,19.92,9.18c-26.24,14.21-51.42,16.48-64.74,16.48c-27.42,0-49.46-8.2-64.74-16.48   c7.15-2.68,14.02-5.68,19.91-9.17c10.17,4.97,25.66,10.39,44.83,10.39C174.913,376.12,191.363,374.27,208.833,365.72z M210.143,341   h-11.28v-17.47c3.94-0.56,7.7-1.22,11.28-2V341z M164.013,317.75c-40.9,0-68.71-7.83-82.67-23.28   c-6.53-7.23-11.97-23.29-15.73-46.44c3.4-29.42,8.33-59,14.67-87.93c5.04-23.02,25.74-39.72,49.21-39.72h69.04   c23.47,0,44.17,16.7,49.21,39.72c6.34,28.93,11.27,58.51,14.67,87.93c-3.76,23.15-9.2,39.21-15.73,46.44   C232.723,309.92,204.913,317.75,164.013,317.75z M248.993,341v-37.54c1.28-1.17,2.49-2.37,3.63-3.63   c4.82-5.34,8.96-14.03,12.38-25.97c1.92,22.3,3,44.74,3.22,67.14H248.993z M234.403,124.75c-10.22-7.98-22.91-12.37-35.87-12.37   h-1.19c4.04-4.33,8.38-10.03,11.95-17.17c26.62,2.28,53.23,6.59,79.19,12.85c3.42,9.58,6.57,19.26,9.43,28.97   C277.053,131.69,255.723,127.56,234.403,124.75z M298.693,336.07c-0.03,0-0.07,0-0.1,0c-2.16,0-3.94-1.72-4-3.9   c-0.56-21.37-1.73-43.02-3.45-64.35c-1.87-23.13-4.46-46.52-7.69-69.51c-0.3-2.19,1.22-4.21,3.41-4.52c2.2-0.31,4.21,1.22,4.52,3.4   c3.25,23.15,5.85,46.7,7.73,69.99c1.74,21.46,2.91,43.26,3.48,64.78C302.653,334.17,300.903,336.01,298.693,336.07z"/><path d="M221.443,438.73c-19.75-0.4-40.49,8.52-57.43,24.65c-16.94-16.13-37.69-25.07-57.43-24.65   c-12.86,0.28-23.66,4.57-30.39,12.1c-14.8,16.54-6.49,44.9-4.68,50.42c0.54,1.64,2.08,2.75,3.8,2.75h177.4   c1.72,0,3.26-1.11,3.8-2.75c1.81-5.52,10.12-33.88-4.68-50.42C245.103,443.3,234.303,439.01,221.443,438.73z"/><path d="M212.223,151.12c-15.73,0-23.83,8.69-24.17,9.06c-1.48,1.62-1.36,4.12,0.25,5.61c1.6,1.5,4.13,1.4,5.64-0.2   c0.25-0.26,6.24-6.47,18.28-6.47c11.98,0,17.98,6.17,18.27,6.47c0.79,0.85,1.86,1.29,2.94,1.29c0.96,0,1.92-0.35,2.69-1.05   c1.63-1.49,1.75-4.02,0.26-5.65C236.043,159.81,227.943,151.12,212.223,151.12z"/><path d="M232.023,179.1c-1.74-1.36-4.25-1.05-5.61,0.69c-1.41,1.82-3.28,3-5.35,3.73c-0.29-0.81-0.65-1.59-1.07-2.32   c0.86-1.83,1.51-3.79,1.93-5.91c0.44-2.17-0.97-4.28-3.13-4.71c-2.17-0.44-4.28,0.97-4.71,3.13c-0.13,0.64-0.29,1.26-0.47,1.85   c-1.62-0.68-3.39-1.06-5.25-1.06c-7.46,0-13.5,6.07-13.5,13.56s6.04,13.56,13.5,13.56c6.18,0,11.38-4.18,12.98-9.88   c4.76-1.15,8.65-3.52,11.38-7.03C234.083,182.97,233.773,180.45,232.023,179.1z"/><path d="M188.173,237.55c-0.07,0.07-7.02,6.57-24.16,6.57c-17.08,0-24.13-6.54-24.16-6.57c-1.56-1.56-4.09-1.57-5.66-0.01   c-1.56,1.56-1.57,4.09-0.01,5.66c0.36,0.36,9.12,8.92,29.83,8.92s29.47-8.56,29.83-8.92c1.56-1.57,1.55-4.1-0.01-5.66   C192.263,235.98,189.733,235.99,188.173,237.55z"/><path d="M97.533,165.6c0.25-0.27,6.24-6.48,18.27-6.48c12.04,0,18.03,6.21,18.26,6.45c0.79,0.87,1.87,1.3,2.96,1.3   c0.96,0,1.92-0.34,2.69-1.04c1.63-1.49,1.75-4.02,0.26-5.65c-0.34-0.37-8.44-9.06-24.17-9.06c-15.72,0-23.82,8.69-24.16,9.06   c-1.48,1.62-1.36,4.12,0.25,5.61C93.503,167.29,96.023,167.19,97.533,165.6z"/><path d="M119.663,174.5c-1.86,0-3.63,0.38-5.25,1.06c-0.18-0.59-0.34-1.21-0.47-1.85c-0.43-2.16-2.54-3.56-4.71-3.13   c-2.16,0.43-3.57,2.54-3.13,4.71c0.42,2.12,1.07,4.08,1.93,5.91c-0.42,0.73-0.78,1.51-1.07,2.32c-2.07-0.73-3.94-1.91-5.35-3.73   c-1.36-1.74-3.87-2.05-5.61-0.69c-1.75,1.35-2.06,3.87-0.7,5.61c2.73,3.51,6.62,5.88,11.38,7.03c1.6,5.7,6.8,9.88,12.98,9.88   c7.46,0,13.5-6.07,13.5-13.56S127.123,174.5,119.663,174.5z"/></g><text x="0" y="519" fill="#000000" font-size="5px" font-weight="bold" font-family="'Helvetica Neue', Helvetica, Arial-Unicode, Arial, Sans-serif">Created by Amethyst Studio</text><text x="0" y="524" fill="#000000" font-size="5px" font-weight="bold" font-family="'Helvetica Neue', Helvetica, Arial-Unicode, Arial, Sans-serif">from the Noun Project</text></svg>